<svg width="1254" height="192" viewBox="0 0 1254 192" fill="none" xmlns="http://www.w3.org/2000/svg">
<path d="M164.835 103.097C164.835 104.187 164.801 105.27 164.753 106.348L177.056 127.706C179.323 119.888 180.561 111.638 180.561 103.097C180.561 61.6424 151.919 26.7635 113.39 17.1808L125.716 38.58C148.943 50.7615 164.835 75.1004 164.835 103.097Z" fill="url(#paint0_linear_156_25)"/>
<path d="M164.835 103.097C164.835 104.187 164.801 105.27 164.753 106.348L177.056 127.706C179.323 119.888 180.561 111.638 180.561 103.097C180.561 61.6424 151.919 26.7635 113.39 17.1808L125.716 38.58C148.943 50.7615 164.835 75.1004 164.835 103.097Z" fill="url(#paint1_linear_156_25)"/>
<path d="M19.3008 106.554C19.2471 105.408 19.2135 104.255 19.2135 103.097C19.2135 74.9311 35.3011 50.4666 58.7612 38.3624L63.8557 29.5581L63.7518 29.3768L70.9077 17.1228C32.2534 26.6209 3.48633 61.553 3.48633 103.097C3.48633 111.664 4.73373 119.944 7.01531 127.784L19.3008 106.554Z" fill="url(#paint2_linear_156_25)"/>
<path d="M19.3008 106.554C19.2471 105.408 19.2135 104.255 19.2135 103.097C19.2135 74.9311 35.3011 50.4666 58.7612 38.3624L63.8557 29.5581L63.7518 29.3768L70.9077 17.1228C32.2534 26.6209 3.48633 61.553 3.48633 103.097C3.48633 111.664 4.73373 119.944 7.01531 127.784L19.3008 106.554Z" fill="url(#paint3_linear_156_25)"/>
<path d="M92.0265 175.908C80.0135 175.908 68.6822 172.966 58.6844 167.793H31.6709C47.4979 182.566 68.718 191.633 92.0265 191.633C112.517 191.633 131.392 184.62 146.409 172.886L138.432 159.157C125.822 169.613 109.647 175.908 92.0265 175.908Z" fill="url(#paint4_linear_156_25)"/>
<path d="M92.0265 175.908C80.0135 175.908 68.6822 172.966 58.6844 167.793H31.6709C47.4979 182.566 68.718 191.633 92.0265 191.633C112.517 191.633 131.392 184.62 146.409 172.886L138.432 159.157C125.822 169.613 109.647 175.908 92.0265 175.908Z" fill="url(#paint5_linear_156_25)"/>
<path d="M89.4441 158.024L99.2711 140.826L82.1717 111.638L70.6737 131.98H50.0364L85.2281 71.1768L68.1673 41.6091L21.6938 121.919L11.4245 139.668L0.801758 158.024H22.6608H44.3095H89.4441Z" fill="url(#paint6_linear_156_25)"/>
<path d="M172.645 139.62L162.386 121.81L111.143 32.8507L100.862 15.0002L92.2192 -1.95758e-05L83.4726 14.9809L75.0469 29.4082L76.5196 31.9634L102.358 76.8047L89.2472 99.8163L106.052 129.328L119.319 106.331L145.71 152.224L149.046 158.024H161.387H183.246L172.645 139.62Z" fill="url(#paint7_linear_156_25)"/>
<path d="M255 143V49.9091H280.273V122.636H317.909V143H255Z" fill="white"/>
<path d="M328.125 143V49.9091H395.216V70.2727H353.398V86.2727H391.761V106.636H353.398V122.636H395.034V143H328.125Z" fill="white"/>
<path d="M468.205 80.6364C467.811 79.0303 467.189 77.6212 466.341 76.4091C465.492 75.1667 464.432 74.1212 463.159 73.2727C461.917 72.3939 460.462 71.7424 458.795 71.3182C457.159 70.8636 455.356 70.6364 453.386 70.6364C449.144 70.6364 445.523 71.6515 442.523 73.6818C439.553 75.7121 437.28 78.6364 435.705 82.4545C434.159 86.2727 433.386 90.8788 433.386 96.2727C433.386 101.727 434.129 106.394 435.614 110.273C437.098 114.152 439.311 117.121 442.25 119.182C445.189 121.242 448.841 122.273 453.205 122.273C457.053 122.273 460.25 121.712 462.795 120.591C465.371 119.47 467.295 117.879 468.568 115.818C469.841 113.758 470.477 111.333 470.477 108.545L474.841 109H453.568V91H494.841V103.909C494.841 112.394 493.038 119.652 489.432 125.682C485.856 131.682 480.917 136.288 474.614 139.5C468.341 142.682 461.144 144.273 453.023 144.273C443.962 144.273 436.008 142.348 429.159 138.5C422.311 134.652 416.962 129.167 413.114 122.045C409.295 114.924 407.386 106.455 407.386 96.6364C407.386 88.9394 408.553 82.1212 410.886 76.1818C413.25 70.2424 416.523 65.2273 420.705 61.1364C424.886 57.0151 429.72 53.9091 435.205 51.8182C440.689 49.697 446.568 48.6364 452.841 48.6364C458.356 48.6364 463.477 49.4242 468.205 51C472.962 52.5454 477.159 54.7576 480.795 57.6364C484.462 60.4848 487.417 63.8636 489.659 67.7727C491.902 71.6818 493.265 75.9697 493.75 80.6364H468.205Z" fill="white"/>
<path d="M527.932 143H500.659L531.386 49.9091H565.932L596.659 143H569.386L549.023 75.5454H548.295L527.932 143ZM522.841 106.273H574.114V125.182H522.841V106.273Z" fill="white"/>
<path d="M605.625 143V49.9091H630.898V122.636H668.534V143H605.625Z" fill="white"/>
<path d="M701.705 70.2727V49.9091H782.614V70.2727H754.614V143H729.705V70.2727H701.705Z" fill="white"/>
<path d="M792.125 143V49.9091H832.307C839.216 49.9091 845.261 51.1667 850.443 53.6818C855.625 56.197 859.655 59.8182 862.534 64.5454C865.413 69.2727 866.852 74.9394 866.852 81.5454C866.852 88.2121 865.367 93.8333 862.398 98.4091C859.458 102.985 855.322 106.439 849.989 108.773C844.686 111.106 838.489 112.273 831.398 112.273H807.398V92.6364H826.307C829.277 92.6364 831.807 92.2727 833.898 91.5454C836.019 90.7879 837.64 89.5909 838.761 87.9545C839.913 86.3182 840.489 84.1818 840.489 81.5454C840.489 78.8788 839.913 76.7121 838.761 75.0454C837.64 73.3485 836.019 72.1061 833.898 71.3182C831.807 70.5 829.277 70.0909 826.307 70.0909H817.398V143H792.125ZM846.67 100.273L869.943 143H842.489L819.761 100.273H846.67Z" fill="white"/>
<path d="M901.807 143H874.534L905.261 49.9091H939.807L970.534 143H943.261L922.898 75.5454H922.17L901.807 143ZM896.716 106.273H947.989V125.182H896.716V106.273Z" fill="white"/>
<path d="M979.5 143V49.9091H1044.95V70.2727H1004.77V86.2727H1040.95V106.636H1004.77V143H979.5Z" fill="white"/>
<path d="M1054.25 143V49.9091H1119.7V70.2727H1079.52V86.2727H1115.7V106.636H1079.52V143H1054.25Z" fill="white"/>
<path d="M1154.27 49.9091V143H1129V49.9091H1154.27Z" fill="white"/>
<path d="M1253.16 84.8182H1227.52C1227.34 82.697 1226.86 80.7727 1226.07 79.0454C1225.31 77.3182 1224.25 75.8333 1222.89 74.5909C1221.55 73.3182 1219.93 72.3485 1218.02 71.6818C1216.11 70.9848 1213.95 70.6364 1211.52 70.6364C1207.28 70.6364 1203.69 71.6667 1200.75 73.7273C1197.84 75.7879 1195.63 78.7424 1194.11 82.5909C1192.63 86.4394 1191.89 91.0606 1191.89 96.4545C1191.89 102.152 1192.64 106.924 1194.16 110.773C1195.7 114.591 1197.93 117.47 1200.84 119.409C1203.75 121.318 1207.25 122.273 1211.34 122.273C1213.67 122.273 1215.77 121.985 1217.61 121.409C1219.46 120.803 1221.07 119.939 1222.43 118.818C1223.8 117.697 1224.9 116.348 1225.75 114.773C1226.63 113.167 1227.22 111.364 1227.52 109.364L1253.16 109.545C1252.86 113.485 1251.75 117.5 1249.84 121.591C1247.93 125.652 1245.22 129.409 1241.7 132.864C1238.22 136.288 1233.9 139.045 1228.75 141.136C1223.6 143.227 1217.61 144.273 1210.8 144.273C1202.25 144.273 1194.58 142.439 1187.8 138.773C1181.04 135.106 1175.69 129.712 1171.75 122.591C1167.84 115.47 1165.89 106.758 1165.89 96.4545C1165.89 86.0909 1167.89 77.3636 1171.89 70.2727C1175.89 63.1515 1181.28 57.7727 1188.07 54.1364C1194.86 50.4697 1202.43 48.6364 1210.8 48.6364C1216.67 48.6364 1222.08 49.4394 1227.02 51.0454C1231.96 52.6515 1236.3 55 1240.02 58.0909C1243.75 61.1515 1246.75 64.9242 1249.02 69.4091C1251.3 73.8939 1252.67 79.0303 1253.16 84.8182Z" fill="white"/>
<defs>
<linearGradient id="paint0_linear_156_25" x1="146.975" y1="127.706" x2="146.975" y2="17.1808" gradientUnits="userSpaceOnUse">
<stop stop-color="#8C68CD"/>
<stop offset="1" stop-color="#00D1FF"/>
</linearGradient>
<linearGradient id="paint1_linear_156_25" x1="146.975" y1="127.706" x2="146.975" y2="17.1808" gradientUnits="userSpaceOnUse">
<stop stop-color="#8C68CD"/>
<stop offset="1" stop-color="#00D1FF"/>
</linearGradient>
<linearGradient id="paint2_linear_156_25" x1="37.197" y1="127.784" x2="37.197" y2="17.1227" gradientUnits="userSpaceOnUse">
<stop stop-color="#8C68CD"/>
<stop offset="1" stop-color="#00D1FF"/>
</linearGradient>
<linearGradient id="paint3_linear_156_25" x1="37.197" y1="127.784" x2="37.197" y2="17.1227" gradientUnits="userSpaceOnUse">
<stop stop-color="#8C68CD"/>
<stop offset="1" stop-color="#00D1FF"/>
</linearGradient>
<linearGradient id="paint4_linear_156_25" x1="89.0401" y1="191.633" x2="89.0401" y2="159.157" gradientUnits="userSpaceOnUse">
<stop stop-color="#8C68CD"/>
<stop offset="1" stop-color="#00D1FF"/>
</linearGradient>
<linearGradient id="paint5_linear_156_25" x1="89.0401" y1="191.633" x2="89.0401" y2="159.157" gradientUnits="userSpaceOnUse">
<stop stop-color="#8C68CD"/>
<stop offset="1" stop-color="#00D1FF"/>
</linearGradient>
<linearGradient id="paint6_linear_156_25" x1="51.8338" y1="118.354" x2="48.4881" y2="41.6766" gradientUnits="userSpaceOnUse">
<stop stop-color="#9256FF"/>
<stop offset="1" stop-color="#00D1FF"/>
</linearGradient>
<linearGradient id="paint7_linear_156_25" x1="131.121" y1="104.175" x2="125.516" y2="0.195646" gradientUnits="userSpaceOnUse">
<stop stop-color="#9256FF"/>
<stop offset="1" stop-color="#00D1FF"/>
</linearGradient>
</defs>
</svg>
